<?xml version="1.0" encoding="UTF-8"?>
<svg width="800px" height="800px" viewBox="0 0 800 800" version="1.1" xmlns="http://www.w3.org/2000/svg">
    <g stroke="none" stroke-width="1" fill="none" fill-rule="evenodd">
        <g fill="#FFFFFF" fill-opacity="0.25">
            <!-- Africa Continent Dotted Representation -->
            <circle cx="400" cy="280" r="4"/>
            <circle cx="420" cy="260" r="4"/>
            <circle cx="440" cy="270" r="4"/>
            <circle cx="460" cy="290" r="4"/>
            <circle cx="430" cy="310" r="4"/>
            <circle cx="410" cy="330" r="4"/>
            <circle cx="390" cy="310" r="4"/>
            <circle cx="370" cy="290" r="4"/>
            <circle cx="380" cy="270" r="4"/>
            
            <circle cx="380" cy="350" r="4"/>
            <circle cx="400" cy="370" r="4"/>
            <circle cx="420" cy="390" r="4"/>
            <circle cx="440" cy="410" r="4"/>
            <circle cx="460" cy="430" r="4"/>
            <circle cx="440" cy="450" r="4"/>
            <circle cx="420" cy="470" r="4"/>
            <circle cx="400" cy="490" r="4"/>
            <circle cx="380" cy="470" r="4"/>
            <circle cx="360" cy="450" r="4"/>
            <circle cx="340" cy="430" r="4"/>
            <circle cx="360" cy="410" r="4"/>
            <circle cx="380" cy="390" r="4"/>
            
            <circle cx="340" cy="370" r="4"/>
            <circle cx="320" cy="350" r="4"/>
            <circle cx="300" cy="370" r="4"/>
            <circle cx="320" cy="390" r="4"/>
            <circle cx="340" cy="410" r="4"/>
            <circle cx="320" cy="430" r="4"/>
            <circle cx="300" cy="450" r="4"/>
            <circle cx="280" cy="430" r="4"/>
            <circle cx="260" cy="410" r="4"/>
            <circle cx="280" cy="390" r="4"/>
            <circle cx="260" cy="370" r="4"/>
            <circle cx="280" cy="350" r="4"/>
            
            <circle cx="460" cy="310" r="4"/>
            <circle cx="480" cy="330" r="4"/>
            <circle cx="500" cy="350" r="4"/>
            <circle cx="520" cy="370" r="4"/>
            <circle cx="540" cy="390" r="4"/>
            <circle cx="520" cy="410" r="4"/>
            <circle cx="500" cy="430" r="4"/>
            <circle cx="480" cy="450" r="4"/>
            <circle cx="460" cy="470" r="4"/>
            <circle cx="440" cy="490" r="4"/>
            <circle cx="420" cy="510" r="4"/>
            <circle cx="400" cy="530" r="4"/>
            <circle cx="380" cy="510" r="4"/>
            <circle cx="360" cy="490" r="4"/>
            <circle cx="340" cy="470" r="4"/>
            <circle cx="320" cy="490" r="4"/>
            <circle cx="340" cy="510" r="4"/>
            <circle cx="360" cy="530" r="4"/>
            <circle cx="380" cy="550" r="4"/>
            <circle cx="400" cy="570" r="4"/>
            <circle cx="420" cy="550" r="4"/>
            <circle cx="440" cy="530" r="4"/>
            <circle cx="460" cy="510" r="4"/>
            <circle cx="480" cy="490" r="4"/>
            <circle cx="500" cy="470" r="4"/>
            
            <!-- Horn of Africa -->
            <circle cx="520" cy="350" r="4"/>
            <circle cx="540" cy="330" r="4"/>
            <circle cx="560" cy="340" r="4"/>
            <circle cx="550" cy="360" r="4"/>
            <circle cx="530" cy="380" r="4"/>
            
            <!-- Madagascar -->
            <circle cx="520" cy="530" r="4"/>
            <circle cx="540" cy="550" r="4"/>
            <circle cx="520" cy="570" r="4"/>
            <circle cx="500" cy="550" r="4"/>
            
            <!-- North Africa -->
            <circle cx="360" cy="250" r="4"/>
            <circle cx="340" cy="230" r="4"/>
            <circle cx="320" cy="210" r="4"/>
            <circle cx="300" cy="230" r="4"/>
            <circle cx="280" cy="250" r="4"/>
            <circle cx="260" cy="270" r="4"/>
            <circle cx="240" cy="290" r="4"/>
            <circle cx="260" cy="310" r="4"/>
            <circle cx="280" cy="290" r="4"/>
            <circle cx="300" cy="270" r="4"/>
            <circle cx="320" cy="250" r="4"/>
            <circle cx="340" cy="270" r="4"/>
            <circle cx="360" cy="290" r="4"/>
            <circle cx="340" cy="310" r="4"/>
            <circle cx="320" cy="330" r="4"/>
            <circle cx="300" cy="310" r="4"/>
            <circle cx="280" cy="330" r="4"/>
            
            <!-- West Africa -->
            <circle cx="240" cy="330" r="4"/>
            <circle cx="220" cy="350" r="4"/>
            <circle cx="240" cy="370" r="4"/>
            <circle cx="220" cy="390" r="4"/>
            <circle cx="240" cy="410" r="4"/>
            
            <!-- South Africa -->
            <circle cx="380" cy="590" r="4"/>
            <circle cx="400" cy="610" r="4"/>
            <circle cx="420" cy="590" r="4"/>
            <circle cx="440" cy="570" r="4"/>
            <circle cx="460" cy="550" r="4"/>
            <circle cx="480" cy="570" r="4"/>
            <circle cx="460" cy="590" r="4"/>
            <circle cx="440" cy="610" r="4"/>
            <circle cx="420" cy="630" r="4"/>
            <circle cx="400" cy="650" r="4"/>
            <circle cx="380" cy="630" r="4"/>
            <circle cx="360" cy="610" r="4"/>
            <circle cx="340" cy="590" r="4"/>
            <circle cx="360" cy="570" r="4"/>
            <circle cx="380" cy="550" r="4"/>
        </g>
    </g>
</svg>