<?xml version="1.0" encoding="UTF-8"?>
<svg width="800px" height="800px" viewBox="0 0 800 800" version="1.1" xmlns="http://www.w3.org/2000/svg">
    <g stroke="none" stroke-width="1" fill="none" fill-rule="evenodd">
        <g transform="translate(50, 50)" fill="#FFFFFF">
            <!-- Simplified Africa map made of dots -->
            <circle cx="400" cy="150" r="4" />
            <circle cx="380" cy="160" r="4" />
            <circle cx="420" cy="160" r="4" />
            <circle cx="360" cy="170" r="4" />
            <circle cx="400" cy="170" r="4" />
            <circle cx="440" cy="170" r="4" />
            <circle cx="340" cy="180" r="4" />
            <circle cx="380" cy="180" r="4" />
            <circle cx="420" cy="180" r="4" />
            <circle cx="460" cy="180" r="4" />
            <circle cx="320" cy="190" r="4" />
            <circle cx="360" cy="190" r="4" />
            <circle cx="400" cy="190" r="4" />
            <circle cx="440" cy="190" r="4" />
            <circle cx="480" cy="190" r="4" />
            <circle cx="300" cy="200" r="4" />
            <circle cx="340" cy="200" r="4" />
            <circle cx="380" cy="200" r="4" />
            <circle cx="420" cy="200" r="4" />
            <circle cx="460" cy="200" r="4" />
            <circle cx="500" cy="200" r="4" />
            <circle cx="280" cy="210" r="4" />
            <circle cx="320" cy="210" r="4" />
            <circle cx="360" cy="210" r="4" />
            <circle cx="400" cy="210" r="4" />
            <circle cx="440" cy="210" r="4" />
            <circle cx="480" cy="210" r="4" />
            <circle cx="520" cy="210" r="4" />
            <circle cx="260" cy="220" r="4" />
            <circle cx="300" cy="220" r="4" />
            <circle cx="340" cy="220" r="4" />
            <circle cx="380" cy="220" r="4" />
            <circle cx="420" cy="220" r="4" />
            <circle cx="460" cy="220" r="4" />
            <circle cx="500" cy="220" r="4" />
            <circle cx="540" cy="220" r="4" />
            <circle cx="240" cy="230" r="4" />
            <circle cx="280" cy="230" r="4" />
            <circle cx="320" cy="230" r="4" />
            <circle cx="360" cy="230" r="4" />
            <circle cx="400" cy="230" r="4" />
            <circle cx="440" cy="230" r="4" />
            <circle cx="480" cy="230" r="4" />
            <circle cx="520" cy="230" r="4" />
            <circle cx="560" cy="230" r="4" />
            <circle cx="240" cy="240" r="4" />
            <circle cx="280" cy="240" r="4" />
            <circle cx="320" cy="240" r="4" />
            <circle cx="360" cy="240" r="4" />
            <circle cx="400" cy="240" r="4" />
            <circle cx="440" cy="240" r="4" />
            <circle cx="480" cy="240" r="4" />
            <circle cx="520" cy="240" r="4" />
            <circle cx="560" cy="240" r="4" />
            <circle cx="240" cy="250" r="4" />
            <circle cx="280" cy="250" r="4" />
            <circle cx="320" cy="250" r="4" />
            <circle cx="360" cy="250" r="4" />
            <circle cx="400" cy="250" r="4" />
            <circle cx="440" cy="250" r="4" />
            <circle cx="480" cy="250" r="4" />
            <circle cx="520" cy="250" r="4" />
            <circle cx="560" cy="250" r="4" />
            <circle cx="240" cy="260" r="4" />
            <circle cx="280" cy="260" r="4" />
            <circle cx="320" cy="260" r="4" />
            <circle cx="360" cy="260" r="4" />
            <circle cx="400" cy="260" r="4" />
            <circle cx="440" cy="260" r="4" />
            <circle cx="480" cy="260" r="4" />
            <circle cx="520" cy="260" r="4" />
            <circle cx="560" cy="260" r="4" />
            <circle cx="240" cy="270" r="4" />
            <circle cx="280" cy="270" r="4" />
            <circle cx="320" cy="270" r="4" />
            <circle cx="360" cy="270" r="4" />
            <circle cx="400" cy="270" r="4" />
            <circle cx="440" cy="270" r="4" />
            <circle cx="480" cy="270" r="4" />
            <circle cx="520" cy="270" r="4" />
            <circle cx="560" cy="270" r="4" />
            <circle cx="240" cy="280" r="4" />
            <circle cx="280" cy="280" r="4" />
            <circle cx="320" cy="280" r="4" />
            <circle cx="360" cy="280" r="4" />
            <circle cx="400" cy="280" r="4" />
            <circle cx="440" cy="280" r="4" />
            <circle cx="480" cy="280" r="4" />
            <circle cx="520" cy="280" r="4" />
            <circle cx="560" cy="280" r="4" />
            <circle cx="260" cy="290" r="4" />
            <circle cx="300" cy="290" r="4" />
            <circle cx="340" cy="290" r="4" />
            <circle cx="380" cy="290" r="4" />
            <circle cx="420" cy="290" r="4" />
            <circle cx="460" cy="290" r="4" />
            <circle cx="500" cy="290" r="4" />
            <circle cx="540" cy="290" r="4" />
            <circle cx="280" cy="300" r="4" />
            <circle cx="320" cy="300" r="4" />
            <circle cx="360" cy="300" r="4" />
            <circle cx="400" cy="300" r="4" />
            <circle cx="440" cy="300" r="4" />
            <circle cx="480" cy="300" r="4" />
            <circle cx="520" cy="300" r="4" />
            <circle cx="300" cy="310" r="4" />
            <circle cx="340" cy="310" r="4" />
            <circle cx="380" cy="310" r="4" />
            <circle cx="420" cy="310" r="4" />
            <circle cx="460" cy="310" r="4" />
            <circle cx="500" cy="310" r="4" />
            <circle cx="320" cy="320" r="4" />
            <circle cx="360" cy="320" r="4" />
            <circle cx="400" cy="320" r="4" />
            <circle cx="440" cy="320" r="4" />
            <circle cx="480" cy="320" r="4" />
            <circle cx="340" cy="330" r="4" />
            <circle cx="380" cy="330" r="4" />
            <circle cx="420" cy="330" r="4" />
            <circle cx="460" cy="330" r="4" />
            <circle cx="360" cy="340" r="4" />
            <circle cx="400" cy="340" r="4" />
            <circle cx="440" cy="340" r="4" />
            <circle cx="380" cy="350" r="4" />
            <circle cx="420" cy="350" r="4" />
            <circle cx="400" cy="360" r="4" />
        </g>
    </g>
</svg>