<?xml version="1.0" encoding="UTF-8"?>
<svg width="32px" height="32px" viewBox="0 0 32 32" version="1.1" xmlns="http://www.w3.org/2000/svg">
    <defs>
        <linearGradient x1="0%" y1="0%" x2="100%" y2="100%" id="linearGradient">
            <stop stop-color="#a78bfa" offset="0%"></stop>
            <stop stop-color="#22d3ee" offset="100%"></stop>
        </linearGradient>
    </defs>
    <g stroke="none" stroke-width="1" fill="none" fill-rule="evenodd">
        <circle fill="url(#linearGradient)" cx="16" cy="16" r="16"></circle>
        <path d="M16,26 C11.581722,26 8,22.418278 8,18 C8,13.581722 11.581722,10 16,10 L16,14 C13.790861,14 12,15.790861 12,18 C12,20.209139 13.790861,22 16,22 L16,26 Z" fill="#FFFFFF"></path>
        <path d="M16,22 L16,18 L20,18 C20,20.209139 18.209139,22 16,22 Z" fill="#FFFFFF"></path>
        <path d="M16,14 L16,10 L20,10 C20,12.209139 18.209139,14 16,14 Z" fill="#FFFFFF" opacity="0.7"></path>
    </g>
</svg>